<svg width="42" height="42" viewBox="0 0 42 42" fill="none" xmlns="http://www.w3.org/2000/svg">
<path d="M25.816 19.544L20.2213 15.813C19.9575 15.637 19.6508 15.536 19.334 15.5208C19.0173 15.5055 18.7023 15.5767 18.4229 15.7265C18.1434 15.8764 17.9099 16.0994 17.7474 16.3717C17.5848 16.644 17.4993 16.9554 17.5 17.2725V24.7328C17.5 25.0496 17.5859 25.3605 17.7487 25.6323C17.9115 25.9041 18.1451 26.1266 18.4244 26.276C18.7038 26.4255 19.0185 26.4963 19.3349 26.481C19.6514 26.4656 19.9577 26.3646 20.2213 26.1888L25.816 22.4578C26.0557 22.2979 26.2522 22.0814 26.3881 21.8274C26.524 21.5734 26.5951 21.2898 26.5951 21.0018C26.5951 20.7137 26.524 20.4301 26.3881 20.1761C26.2522 19.9221 26.0557 19.7038 25.816 19.544Z" stroke="white" stroke-width="2" stroke-linecap="round" stroke-linejoin="round"/>
<path d="M36.75 21C36.75 23.0683 36.3426 25.1164 35.5511 27.0273C34.7596 28.9381 33.5995 30.6744 32.1369 32.1369C30.6744 33.5995 28.9381 34.7596 27.0273 35.5511C25.1164 36.3426 23.0683 36.75 21 36.75C18.9317 36.75 16.8836 36.3426 14.9727 35.5511C13.0619 34.7596 11.3256 33.5995 9.86307 32.1369C8.40055 30.6744 7.24041 28.9381 6.4489 27.0273C5.65739 25.1164 5.25 23.0683 5.25 21C5.25 16.8228 6.90937 12.8168 9.86307 9.86307C12.8168 6.90937 16.8228 5.25 21 5.25C25.1772 5.25 29.1832 6.90937 32.1369 9.86307C35.0906 12.8168 36.75 16.8228 36.75 21Z" stroke="white" stroke-width="2" stroke-linecap="round" stroke-linejoin="round"/>
</svg>
